<svg width="220" height="48" viewBox="0 0 220 48" fill="none" xmlns="http://www.w3.org/2000/svg">
<path d="M14.9537 38.1135C13.9982 38.6866 13.2339 39.2597 12.6606 39.8329C12.6128 39.8806 12.6128 39.8806 12.565 39.9284C12.3739 40.1194 12.1828 40.3105 12.0395 40.5493C12.0395 40.597 11.9917 40.597 11.9917 40.6448C11.9917 40.6926 11.9439 40.6926 11.9439 40.7403C11.9439 40.7403 11.9439 40.7403 11.9439 40.7881C11.9439 40.8359 11.8962 40.8359 11.8962 40.8836C11.8962 40.8836 11.8962 40.8836 11.8962 40.9314C11.8962 40.9791 11.8484 40.9791 11.8484 41.0269C11.8006 41.1702 11.7529 41.2657 11.7051 41.409C11.7051 41.409 11.7051 41.409 11.7051 41.4567V41.5045V41.5523V41.6V41.6478V41.6956V41.7433V41.7911V41.8388V41.8866V41.9344V41.9821V42.0299C11.7051 42.0776 11.7051 42.0776 11.7051 42.1254V42.1732V42.2209V42.2687V42.3164V42.3642V42.412V42.4597V42.5075V42.5553V42.603C11.7051 42.603 11.7051 42.6508 11.7529 42.6508V42.6985C11.7529 42.7463 11.8006 42.7463 11.8006 42.7941C11.8006 42.8418 11.8484 42.8896 11.8484 42.8896C11.8484 42.8896 11.8484 42.8896 11.8484 42.9373C11.8484 42.9851 11.8962 42.9851 11.8962 43.0329V43.0806L11.9439 43.1284C11.9439 43.1284 11.9439 43.1761 11.9917 43.1761L12.0395 43.2239C12.0395 43.2239 12.0395 43.2717 12.0873 43.2717C12.0873 43.3194 12.135 43.3194 12.135 43.3672C12.135 43.3672 12.135 43.3672 12.1828 43.415C12.1828 43.4627 12.2306 43.4627 12.2306 43.5105C12.2306 43.5105 12.2306 43.5105 12.2784 43.5582C12.3261 43.606 12.3261 43.606 12.3739 43.6538C12.4217 43.7493 12.5172 43.797 12.6128 43.8926C12.6606 43.9403 12.6606 43.9403 12.7083 43.9881C12.7083 43.9881 12.7083 43.9881 12.7561 44.0358C12.8039 44.0836 12.8039 44.0836 12.8517 44.1314C12.8517 44.1314 12.8994 44.1314 12.8994 44.1791C12.9472 44.2269 12.9472 44.2269 12.995 44.2747C12.995 44.2747 13.0428 44.2747 13.0428 44.3224C13.0905 44.3702 13.1383 44.3702 13.1383 44.4179C13.1383 44.4179 13.1383 44.4179 13.1861 44.4179C13.2339 44.4657 13.2816 44.4657 13.3294 44.5135C13.3772 44.5612 13.4249 44.609 13.4727 44.609C13.6638 44.7045 13.8071 44.8478 13.9982 44.9433C14.1893 45.0388 14.3804 45.1344 14.6193 45.2299H14.6671C18.3935 46.9493 25.0341 47.809 25.894 46.2329C26.5628 44.8 23.362 41.9344 14.9537 38.1135Z" fill="url(#paint0_radial_580_23422)"/>
<path d="M34.6358 9.98207C34.6836 9.93431 34.7314 9.93431 34.7791 9.88655C35.1613 9.64775 35.4958 9.40894 35.8302 9.17013C35.8779 9.12237 35.9257 9.12237 35.9735 9.07461C36.0213 9.02685 36.069 9.02685 36.069 8.97909C36.1168 8.93133 36.1646 8.93133 36.1646 8.88357C36.3557 8.74028 36.499 8.597 36.6423 8.50148C36.6901 8.45371 36.6901 8.45372 36.7379 8.40595C36.7857 8.35819 36.7857 8.35819 36.8334 8.31043C36.8334 8.31043 36.8334 8.31043 36.8812 8.31043C36.929 8.26267 36.929 8.26267 36.9768 8.21491C36.9768 8.21491 36.9768 8.21491 37.0245 8.16715C37.0723 8.11939 37.0723 8.11939 37.1201 8.07163C37.1678 8.02386 37.1679 8.02386 37.2156 7.9761C37.3112 7.88058 37.3589 7.78506 37.4545 7.68954C37.4545 7.64178 37.5023 7.64177 37.5023 7.59401C37.5023 7.59401 37.5023 7.59401 37.5023 7.54625C37.5023 7.49849 37.55 7.49849 37.55 7.45073C37.55 7.45073 37.55 7.45073 37.55 7.40297L37.5978 7.35521V7.30745L37.6456 7.25969V7.21192L37.6934 7.16416C37.6934 7.16416 37.6934 7.16416 37.6934 7.1164C37.6934 7.06864 37.7411 7.06864 37.7411 7.02088C37.7889 6.97312 37.7889 6.92536 37.8367 6.82983C37.8367 6.82983 37.8367 6.78207 37.8845 6.78207V6.73431V6.68655V6.63879V6.59103V6.54327V6.49551V6.44775V6.39998V6.35222V6.30446V6.2567V6.20894V6.16118C37.8845 6.11342 37.8845 6.11342 37.8845 6.06566V6.01789V5.97013V5.92237V5.87461V5.82685V5.77909V5.73133V5.68357V5.63581V5.58804V5.54028V5.49252C37.8845 5.44476 37.8845 5.44476 37.8367 5.397V5.34924C37.8367 5.30148 37.7889 5.30148 37.7889 5.25372V5.20595C37.7889 5.20595 37.7889 5.15819 37.7411 5.15819C37.7411 5.15819 37.7411 5.11043 37.6934 5.11043L37.6456 5.06267C37.6456 5.06267 37.6456 5.01491 37.5978 5.01491L37.55 4.96715C37.55 4.96715 37.55 4.91939 37.5023 4.91939L37.4545 4.87163C37.4545 4.87163 37.4545 4.82386 37.4067 4.82386L37.3589 4.7761C37.3589 4.7761 37.3589 4.72834 37.3112 4.72834C37.3112 4.68058 37.2634 4.68058 37.2634 4.63282C37.2634 4.63282 37.2634 4.63282 37.2156 4.58506C37.2634 4.39401 37.2634 4.39401 37.2156 4.34625C37.2156 4.34625 37.2156 4.34625 37.1679 4.29849C37.1201 4.25073 37.1201 4.25073 37.0723 4.20297L37.0245 4.15521C36.9768 4.15521 36.9768 4.10745 36.929 4.10745L36.8812 4.05969C36.8334 4.05969 36.8334 4.01192 36.7857 4.01192L36.7379 3.96416C36.6901 3.96416 36.6901 3.9164 36.6423 3.9164L36.5946 3.86864C36.6423 3.82088 36.5946 3.82088 36.5946 3.82088L36.5468 3.77312C36.499 3.72536 36.499 3.72536 36.4512 3.6776C36.4512 3.6776 36.4035 3.6776 36.4035 3.62983C36.3557 3.58207 36.3079 3.53431 36.2601 3.53431C36.1646 3.48655 36.1168 3.43879 36.0213 3.39103C35.9257 3.34327 35.8302 3.29551 35.7346 3.24775C35.5435 3.15222 35.3524 3.0567 35.1136 2.96118H35.0658C31.3394 1.24178 24.6988 0.382074 23.8389 1.95819C23.0267 3.29551 26.2276 6.16118 34.6358 9.98207Z" fill="url(#paint1_radial_580_23422)"/>
<path d="M34.9703 40.788C42.7097 37.1582 46.0061 33.8627 47.2483 31.188C44.0952 40.9313 35.1136 47.6179 24.7944 47.5701C20.9247 47.5701 28.1386 43.988 34.9703 40.788Z" fill="url(#paint2_radial_580_23422)"/>
<path d="M1.91079 29.3254C2.48408 33.0985 5.68495 40.5493 13.9021 44.8478C13.711 44.7523 13.5199 44.6567 13.3766 44.5134C6.01937 39.6896 22.0237 34.8657 34.4928 29.2299C42.901 25.409 48.2039 22.4478 47.6307 18.7224C47.0574 14.9493 43.8565 7.49852 35.6871 3.20001C35.8782 3.29553 36.0693 3.39106 36.2126 3.53434C43.5699 8.35822 27.5655 13.1821 15.0965 18.8179C6.68821 22.6388 1.38527 25.6478 1.91079 29.3254Z" fill="url(#paint3_radial_580_23422)"/>
<path d="M44.2867 24.0239C41.9935 25.6955 38.6016 27.3671 34.4452 29.2298C31.2921 30.6627 27.9002 32.0477 24.7471 33.3851C30.05 35.6298 34.7796 37.7313 36.8817 39.8328C39.2704 38.591 41.1336 37.4448 42.6146 36.2985C42.7102 36.203 42.8535 36.1074 42.949 36.0119C43.0446 35.9164 43.1879 35.8209 43.2834 35.7731C43.379 35.6776 43.4745 35.5821 43.5701 35.5343C43.6656 35.4388 43.7612 35.391 43.8567 35.2955L43.9045 35.2477C44.0001 35.1522 44.0478 35.1045 44.1434 35.0089C44.1912 35.0089 44.1912 34.9612 44.2389 34.9612C44.3345 34.9134 44.3822 34.8179 44.4778 34.7701C44.5256 34.7224 44.5256 34.7224 44.5733 34.6746C44.6211 34.6268 44.7167 34.5313 44.7644 34.4836C44.8122 34.4358 44.8122 34.4358 44.86 34.388C44.9078 34.3403 44.9555 34.2925 45.0033 34.2448C45.0511 34.197 45.0989 34.1492 45.1466 34.1015C45.1944 34.0537 45.1944 34.006 45.2422 34.006C45.29 33.9582 45.3377 33.9104 45.3855 33.8627C45.4333 33.8149 45.4333 33.8149 45.4811 33.7671C45.5288 33.7194 45.5766 33.6239 45.6244 33.5761L45.6722 33.5283C45.7677 33.3851 45.911 33.2418 46.0066 33.1463C46.0543 33.0507 46.1499 32.9552 46.1977 32.9074C46.5799 32.3821 46.8665 31.8567 47.1054 31.3313C47.2965 30.6627 47.4398 30.0418 47.5353 29.4686C47.9175 27.4627 46.6754 25.7433 44.2867 24.0239Z" fill="url(#paint4_radial_580_23422)"/>
<path d="M5.25542 24.0239C7.54858 22.3522 10.9405 20.6806 15.0969 18.8179C18.25 17.3851 21.642 16 24.795 14.6627C19.4921 12.4179 14.7625 10.3164 12.6604 8.2149C9.50732 9.83879 7.21416 11.3671 5.54206 12.8477C5.54206 12.8477 5.54206 12.8477 5.49429 12.8477C5.39874 12.9433 5.30319 12.991 5.20764 13.0865L5.15987 13.1343C5.06432 13.2298 5.01655 13.2776 4.921 13.3731L4.87322 13.4209C4.77768 13.4686 4.7299 13.5642 4.63435 13.6119L4.58658 13.6597C4.53881 13.7074 4.44326 13.803 4.39548 13.8507C4.34771 13.8985 4.34771 13.8985 4.29993 13.9462C4.25216 13.994 4.20439 14.0418 4.15661 14.0895C4.10884 14.1373 4.10884 14.1851 4.06106 14.1851C4.01329 14.2328 3.96552 14.2806 3.91774 14.3283C3.86997 14.3761 3.86997 14.3761 3.82219 14.4239C3.77442 14.4716 3.72664 14.5194 3.67887 14.5671C3.6311 14.6149 3.6311 14.6627 3.58332 14.6627C3.53555 14.7104 3.53555 14.7582 3.48777 14.8059C3.44 14.8537 3.39223 14.9015 3.39223 14.9492L3.34445 14.997C3.39223 15.188 3.34445 15.2836 3.29668 15.3313C3.29668 15.3313 3.29668 15.3791 3.2489 15.3791C3.20113 15.4746 3.15335 15.5224 3.10558 15.6179C2.81894 16.0477 2.58006 16.4776 2.38897 16.9074C2.19787 17.5761 2.05455 18.197 1.959 18.7701C1.62458 20.6328 2.86671 22.3522 5.25542 24.0239Z" fill="url(#paint5_radial_580_23422)"/>
<path d="M14.6188 7.30761C6.87937 10.9375 3.58295 14.233 2.34082 16.9076C5.49391 7.16433 14.4755 0.477762 24.7947 0.525523C28.6166 0.525523 21.4027 4.10761 14.6188 7.30761Z" fill="url(#paint6_radial_580_23422)"/>
<path d="M68.1733 32.5732H64.6858V25.2657H61.4849C60.0517 25.2657 58.2363 25.1702 56.8986 24.0717C55.322 22.7821 55.1787 20.9672 55.1787 19.5821V13.6597H58.6662V19.2478C58.6662 19.7732 58.6184 20.7761 59.3351 21.397C59.9084 21.9224 60.8638 21.9702 61.4371 21.9702H64.6858V13.6597H68.1733V32.5732Z" fill="#005D9F"/>
<path d="M84.3684 18.4359L76.2468 37.3015H72.6159L75.1957 31.2359L70.0361 18.4359H73.9058L77.1545 27.5105L80.5464 18.4359H84.3684Z" fill="#005D9F"/>
<path d="M85.9453 18.4359H89.3373V24.9314L94.4013 18.4359H98.4144L92.777 25.0747L98.701 32.5732H94.4013L89.3373 25.7911V32.5732H85.9453V18.4359Z" fill="#005D9F"/>
<path d="M113.463 25.5045C113.463 29.612 110.262 33.003 105.962 33.003C101.663 33.003 98.4619 29.612 98.4619 25.5045C98.4619 21.3493 101.615 17.9583 105.962 17.9583C110.262 17.9583 113.463 21.3971 113.463 25.5045ZM101.854 25.5045C101.854 27.7971 103.478 29.803 105.962 29.803C108.447 29.803 110.071 27.7971 110.071 25.5045C110.071 23.212 108.494 21.1583 105.962 21.1583C103.43 21.1583 101.854 23.212 101.854 25.5045Z" fill="#005D9F"/>
<path d="M124.212 18.4359V21.4448H120.82V32.5732H117.428V21.4448H114.036V18.4359H124.212Z" fill="#005D9F"/>
<path d="M129.086 27.9881C129.993 29.7075 131.665 29.803 132.382 29.803C134.532 29.803 135.917 28.609 136.443 26.9851H130.614V23.9762H136.443C135.869 22.018 134.15 21.1583 132.43 21.1583C131.856 21.1583 129.945 21.3015 129.038 23.1165H125.216C126.124 20.0597 128.751 17.9583 132.382 17.9583C137.589 17.9583 140.026 22.018 140.026 25.3612C140.026 28.9433 137.446 33.003 132.239 33.003C128.751 33.003 126.267 30.9493 125.216 27.9403H129.086V27.9881Z" fill="#005D9F"/>
<path d="M145.568 18.4359V23.6418H150.823V18.4359H154.215V32.5732H150.823V26.6508H145.568V32.5732H142.176V18.4359H145.568Z" fill="#005D9F"/>
<path d="M160.043 26.9851C160.473 28.7045 161.954 29.803 163.721 29.803C164.82 29.803 166.062 29.5165 166.874 28.4657H170.696C168.785 32.9553 164.486 33.003 163.817 33.003C158.753 33.003 156.316 28.8 156.316 25.6C156.316 22.3523 158.753 17.9583 163.865 17.9583C168.164 17.9583 171.126 21.2538 171.126 25.5045C171.126 26.0299 171.126 26.5075 171.031 27.0329H160.043V26.9851ZM167.639 23.9762C167.161 22.209 165.632 21.1583 163.912 21.1583C162.049 21.1583 160.521 22.3045 159.995 23.9762H167.639Z" fill="#005D9F"/>
<path d="M173.324 18.4359H176.43V20.2508H176.477C177.672 18.2926 179.917 17.9583 181.016 17.9583C184.886 17.9583 188.134 20.9194 188.134 25.5045C188.134 29.3732 185.554 33.0508 181.016 33.0508C179.869 33.0508 178.102 32.7642 176.764 31.0448H176.716V37.3015H173.324V18.4359ZM176.525 25.5045C176.525 28.2269 178.245 29.803 180.538 29.803C182.975 29.803 184.742 27.9881 184.742 25.4568C184.742 23.5463 183.548 21.1583 180.681 21.1583C178.197 21.1583 176.525 23.0209 176.525 25.5045Z" fill="#005D9F"/>
<path d="M198.215 18.4359V21.4448H193.58V32.5732H190.188V18.4359H198.215Z" fill="#005D9F"/>
<path d="M213.359 25.5045C213.359 29.612 210.158 33.003 205.858 33.003C201.558 33.003 198.357 29.612 198.357 25.5045C198.357 21.3493 201.511 17.9583 205.858 17.9583C210.158 17.9583 213.359 21.3971 213.359 25.5045ZM201.702 25.5045C201.702 27.7971 203.326 29.803 205.81 29.803C208.294 29.803 209.919 27.7971 209.919 25.5045C209.919 23.212 208.342 21.1583 205.81 21.1583C203.326 21.1583 201.702 23.212 201.702 25.5045Z" fill="#005D9F"/>
<defs>
<radialGradient id="paint0_radial_580_23422" cx="0" cy="0" r="1" gradientUnits="userSpaceOnUse" gradientTransform="translate(19.8078 42.0428) scale(6.92975 6.92787)">
<stop stop-color="#F18705"/>
<stop offset="0.682" stop-color="#F18705"/>
<stop offset="0.8041" stop-color="#EE7608"/>
<stop offset="1" stop-color="#E95D0C"/>
</radialGradient>
<radialGradient id="paint1_radial_580_23422" cx="0" cy="0" r="1" gradientUnits="userSpaceOnUse" gradientTransform="translate(28.8436 9.36897) scale(8.81432 8.81193)">
<stop offset="0.2778" stop-color="#F18705"/>
<stop offset="0.7296" stop-color="#F18705"/>
<stop offset="0.8029" stop-color="#F08106"/>
<stop offset="0.9073" stop-color="#ED7109"/>
<stop offset="1" stop-color="#E95D0C"/>
</radialGradient>
<radialGradient id="paint2_radial_580_23422" cx="0" cy="0" r="1" gradientUnits="userSpaceOnUse" gradientTransform="translate(30.145 36.5871) scale(12.4416 12.4382)">
<stop stop-color="#005899"/>
<stop offset="0.2474" stop-color="#004381"/>
<stop offset="0.374" stop-color="#004987"/>
<stop offset="0.5916" stop-color="#005A9A"/>
<stop offset="0.6612" stop-color="#0061A1"/>
<stop offset="0.7874" stop-color="#006EAF"/>
<stop offset="1" stop-color="#458FCD"/>
</radialGradient>
<radialGradient id="paint3_radial_580_23422" cx="0" cy="0" r="1" gradientUnits="userSpaceOnUse" gradientTransform="translate(31.9981 15.4829) scale(34.6928 34.6834)">
<stop stop-color="#79A8DA"/>
<stop offset="0.2086" stop-color="#568CC9"/>
<stop offset="0.2225" stop-color="#5288C7"/>
<stop offset="0.4511" stop-color="#095D9F"/>
<stop offset="0.5636" stop-color="#004F92"/>
<stop offset="0.589" stop-color="#004D90"/>
<stop offset="0.6947" stop-color="#004687"/>
<stop offset="0.7907" stop-color="#004C8C"/>
<stop offset="0.836" stop-color="#005092"/>
<stop offset="0.914" stop-color="#005AA2"/>
<stop offset="0.9206" stop-color="#005BA3"/>
<stop offset="0.9612" stop-color="#1E75B8"/>
<stop offset="1" stop-color="#5593CF"/>
</radialGradient>
<radialGradient id="paint4_radial_580_23422" cx="0" cy="0" r="1" gradientUnits="userSpaceOnUse" gradientTransform="translate(24.7776 21.4146) scale(20.6343 20.6287)">
<stop stop-color="#F18705"/>
<stop offset="0.7534" stop-color="#F18705"/>
<stop offset="0.8338" stop-color="#EF7D07"/>
<stop offset="0.9772" stop-color="#EA620B"/>
<stop offset="1" stop-color="#E95D0C"/>
</radialGradient>
<radialGradient id="paint5_radial_580_23422" cx="0" cy="0" r="1" gradientUnits="userSpaceOnUse" gradientTransform="translate(24.7778 21.4146) scale(20.6344 20.6288)">
<stop stop-color="#F18705"/>
<stop offset="0.6582" stop-color="#F18705"/>
<stop offset="0.8921" stop-color="#EC6B0A"/>
<stop offset="1" stop-color="#E95D0C"/>
</radialGradient>
<radialGradient id="paint6_radial_580_23422" cx="0" cy="0" r="1" gradientUnits="userSpaceOnUse" gradientTransform="translate(19.4219 11.516) rotate(180) scale(12.4416 12.4382)">
<stop stop-color="#005899"/>
<stop offset="0.172" stop-color="#004381"/>
<stop offset="0.2731" stop-color="#004987"/>
<stop offset="0.4469" stop-color="#005A9A"/>
<stop offset="0.5025" stop-color="#0061A1"/>
<stop offset="0.9444" stop-color="#458FCD"/>
</radialGradient>
</defs>
</svg>
