<svg xmlns="http://www.w3.org/2000/svg" width="24" height="24" viewBox="0 0 24 24" fill="none">
  <path fill-rule="evenodd" clip-rule="evenodd" d="M1.60598 6.08022C1.72673 6.02853 1.85648 6.00112 1.98782 5.99958C2.11916 5.99804 2.24952 6.02238 2.37145 6.07123C2.49338 6.12008 2.60449 6.19246 2.69844 6.28426C2.79238 6.37606 2.86733 6.48546 2.91899 6.60622L1.99999 7.00022L2.91999 6.60622L2.92299 6.61422L2.94399 6.65922C2.96399 6.70122 2.99499 6.76722 3.03799 6.85322C3.12399 7.02522 3.25698 7.27722 3.43798 7.58222C3.91507 8.38412 4.47478 9.13387 5.10799 9.81922C5.2977 10.0234 5.49448 10.2208 5.69799 10.4112C7.17999 11.8002 9.25098 13.0002 12 13.0002C13.1017 13.0051 14.1944 12.8008 15.22 12.3982C16.447 11.9152 17.474 11.1882 18.316 10.4002C19.4412 9.33094 20.3667 8.06952 21.049 6.67522L21.076 6.61722L21.081 6.60622C21.1879 6.36623 21.3851 6.17798 21.6297 6.08217C21.8744 5.98636 22.1469 5.99069 22.3884 6.09423C22.6299 6.19776 22.8209 6.39218 22.9202 6.63544C23.0195 6.87871 23.0191 7.15128 22.919 7.39422L22.917 7.39922L22.913 7.40722L22.902 7.43322L22.862 7.52022C22.6398 7.98276 22.3924 8.43276 22.121 8.86822C21.6213 9.67127 21.0485 10.4265 20.41 11.1242L21.207 11.9212C21.3946 12.1087 21.5001 12.3631 21.5002 12.6284C21.5003 12.8936 21.395 13.1481 21.2075 13.3357C21.02 13.5234 20.7656 13.6288 20.5003 13.6289C20.2351 13.629 19.9806 13.5237 19.793 13.3362L18.953 12.4962C18.3625 12.975 17.7273 13.3956 17.056 13.7522L17.838 14.9542C17.9118 15.0642 17.9629 15.1878 17.9886 15.3178C18.0142 15.4478 18.0137 15.5815 17.9872 15.7113C17.9607 15.8411 17.9086 15.9643 17.8341 16.0738C17.7595 16.1833 17.664 16.277 17.553 16.3492C17.442 16.4215 17.3177 16.471 17.1874 16.4948C17.0571 16.5187 16.9233 16.5164 16.7939 16.4881C16.6645 16.4598 16.542 16.4061 16.4335 16.3301C16.325 16.254 16.2327 16.1572 16.162 16.0452L15.176 14.5312C14.497 14.7392 13.772 14.8862 13 14.9552V16.5002C13 16.7654 12.8946 17.0198 12.7071 17.2073C12.5196 17.3949 12.2652 17.5002 12 17.5002C11.7348 17.5002 11.4804 17.3949 11.2929 17.2073C11.1053 17.0198 11 16.7654 11 16.5002V14.9562C10.225 14.8862 9.49998 14.7392 8.82299 14.5312L7.83799 16.0452C7.69009 16.2597 7.46432 16.408 7.20874 16.4586C6.95315 16.5091 6.68793 16.4579 6.46953 16.3159C6.25112 16.1738 6.09677 15.9521 6.03933 15.698C5.98189 15.4439 6.0259 15.1774 6.16199 14.9552L6.94398 13.7522C6.24399 13.3822 5.61199 12.9522 5.04699 12.4952L4.20698 13.3352C4.01838 13.5174 3.76578 13.6182 3.50358 13.6159C3.24139 13.6136 2.99057 13.5085 2.80517 13.323C2.61976 13.1376 2.51459 12.8868 2.51231 12.6246C2.51003 12.3624 2.61083 12.1098 2.79299 11.9212L3.58998 11.1242C2.88256 10.3504 2.25598 9.50633 1.71999 8.60522C1.50588 8.24561 1.30866 7.87621 1.12899 7.49822C1.11781 7.4743 1.10681 7.4503 1.09599 7.42622L1.08599 7.40522L1.08399 7.39822L1.08298 7.39622C1.07999 7.39622 1.07999 7.39422 1.99999 7.00022L1.08099 7.39522C1.0291 7.27448 1.00153 7.1447 0.999839 7.0133C0.998148 6.88189 1.02237 6.75144 1.07113 6.62941C1.11989 6.50737 1.19223 6.39614 1.284 6.30208C1.37577 6.20802 1.48519 6.13197 1.60598 6.08022Z" fill="#005D9F"/>
</svg>