<svg xmlns="http://www.w3.org/2000/svg" width="24" height="25" viewBox="0 0 24 25" fill="none">
  <path d="M18.2649 5.10801C16.0571 2.9002 12.4617 2.9002 10.2563 5.10801L4.13908 11.2205C4.09924 11.2604 4.07815 11.3143 4.07815 11.3705C4.07815 11.4268 4.09924 11.4807 4.13908 11.5205L5.00393 12.3854C5.04346 12.4247 5.09697 12.4468 5.15276 12.4468C5.20854 12.4468 5.26205 12.4247 5.30158 12.3854L11.4188 6.27285C12.1781 5.51348 13.1883 5.09629 14.2617 5.09629C15.3352 5.09629 16.3453 5.51348 17.1024 6.27285C17.8617 7.03223 18.2789 8.04238 18.2789 9.11348C18.2789 10.1869 17.8617 11.1947 17.1024 11.9541L10.868 18.1861L9.85784 19.1963C8.9133 20.1408 7.37815 20.1408 6.43362 19.1963C5.97658 18.7393 5.7258 18.1322 5.7258 17.4854C5.7258 16.8385 5.97658 16.2314 6.43362 15.7744L12.6188 9.5916C12.7758 9.43691 12.9821 9.35019 13.2024 9.35019H13.2047C13.425 9.35019 13.6289 9.43691 13.7836 9.5916C13.9406 9.74863 14.025 9.95488 14.025 10.1752C14.025 10.3932 13.9383 10.5994 13.7836 10.7541L8.72815 15.8049C8.6883 15.8447 8.66721 15.8986 8.66721 15.9549C8.66721 16.0111 8.6883 16.065 8.72815 16.1049L9.59299 16.9697C9.63252 17.0091 9.68604 17.0312 9.74182 17.0312C9.7976 17.0312 9.85112 17.0091 9.89065 16.9697L14.9438 11.9166C15.4102 11.4502 15.6656 10.8314 15.6656 10.1729C15.6656 9.51426 15.4078 8.89316 14.9438 8.4291C13.9805 7.46582 12.4149 7.46816 11.4516 8.4291L10.8516 9.03145L5.26877 14.6119C4.88986 14.9886 4.5895 15.4368 4.38512 15.9304C4.18074 16.4241 4.0764 16.9534 4.07815 17.4877C4.07815 18.5729 4.50237 19.5924 5.26877 20.3588C6.0633 21.151 7.10393 21.5471 8.14455 21.5471C9.18518 21.5471 10.2258 21.151 11.018 20.3588L18.2649 13.1166C19.3313 12.0479 19.9219 10.6252 19.9219 9.11348C19.9242 7.59941 19.3336 6.17676 18.2649 5.10801Z" fill="#005D9F"/>
</svg>