<svg xmlns="http://www.w3.org/2000/svg" width="24" height="24" viewBox="0 0 24 24" fill="none">
  <path fill-rule="evenodd" clip-rule="evenodd" d="M14.9491 7.70804C19.2377 7.22471 23.4531 7.60604 23.7911 7.95404C23.9591 8.12804 23.9591 9.33938 23.7897 9.51271C23.754 9.54938 23.7027 9.58857 23.6417 9.6352C23.4132 9.80982 23.048 10.0888 22.8544 10.7307C22.8194 10.8469 22.7837 11.1034 22.7364 11.4433C22.5702 12.6381 22.2607 14.8635 21.3337 15.6487C20.1551 16.6474 16.3597 16.46 15.1164 15.8234C13.6893 15.0921 13.298 12.8452 13.0499 11.4201C13.0042 11.1575 12.9633 10.9229 12.9217 10.7307C12.7864 10.1047 12.1471 10.0534 11.9984 10.0534C11.8497 10.0534 11.2104 10.1047 11.0751 10.7307C11.0337 10.9223 10.9931 11.1561 10.9476 11.4176C10.6999 12.8431 10.309 15.0922 8.88039 15.8234C7.63772 16.46 3.84172 16.6474 2.66305 15.6487C1.7361 14.8635 1.42655 12.6381 1.26035 11.4433C1.21306 11.1034 1.17738 10.8469 1.14239 10.7307C0.948783 10.0883 0.58371 9.80966 0.355148 9.63519C0.294081 9.58858 0.242758 9.5494 0.207055 9.51271C0.0390547 9.33871 0.0390547 8.12804 0.207055 7.95404C0.545055 7.60671 4.76039 7.22471 9.04905 7.70804C9.34358 7.7413 9.54309 7.79201 9.76122 7.84745C10.177 7.95313 10.6605 8.07601 11.9991 8.12804C13.3369 8.07561 13.8209 7.95274 14.2363 7.84725C14.4548 7.79178 14.6543 7.74113 14.9491 7.70804ZM8.5918 14.5213C9.4158 13.7767 9.6978 11.3027 9.76314 10.466C9.8798 8.972 8.13647 8.66 6.0378 8.66C3.91247 8.66 2.4218 8.88734 2.39647 10.0067C2.3538 11.872 2.8598 14.018 3.39847 14.5507C4.42514 15.5667 7.67447 15.35 8.5918 14.5213ZM15.4058 14.5213C14.5818 13.7767 14.2998 11.3027 14.2345 10.466C14.1178 8.972 15.8618 8.66 17.9598 8.66C20.0851 8.66 21.5758 8.88734 21.6011 10.0067C21.6438 11.872 21.1378 14.018 20.5991 14.5507C19.5725 15.5667 16.3231 15.35 15.4058 14.5213Z" fill="#232323"/>
</svg>