<svg xmlns="http://www.w3.org/2000/svg" width="40" height="40" viewBox="0 0 40 40" fill="none">
  <path fill-rule="evenodd" clip-rule="evenodd" d="M19.9998 35.2379C24.0412 35.2379 27.9171 33.6325 30.7748 30.7748C33.6325 27.9171 35.2379 24.0412 35.2379 19.9998C35.2379 15.9584 33.6325 12.0826 30.7748 9.22485C27.9171 6.36716 24.0412 4.76172 19.9998 4.76172C15.9584 4.76172 12.0826 6.36716 9.22485 9.22485C6.36716 12.0826 4.76172 15.9584 4.76172 19.9998C4.76172 24.0412 6.36716 27.9171 9.22485 30.7748C12.0826 33.6325 15.9584 35.2379 19.9998 35.2379Z" stroke="#FF0000" stroke-width="2" stroke-linecap="round" stroke-linejoin="round"/>
  <path d="M15.2387 17.1425C16.2907 17.1425 17.1435 16.2897 17.1435 15.2378C17.1435 14.1858 16.2907 13.333 15.2387 13.333C14.1868 13.333 13.334 14.1858 13.334 15.2378C13.334 16.2897 14.1868 17.1425 15.2387 17.1425Z" fill="#FF0000"/>
  <path d="M24.7622 17.1425C25.8142 17.1425 26.6669 16.2897 26.6669 15.2378C26.6669 14.1858 25.8142 13.333 24.7622 13.333C23.7102 13.333 22.8574 14.1858 22.8574 15.2378C22.8574 16.2897 23.7102 17.1425 24.7622 17.1425Z" fill="#FF0000"/>
  <path d="M14.2852 25.7138C15.4337 23.1748 17.3385 21.9043 19.9994 21.9043C22.6604 21.9043 24.5652 23.1748 25.7137 25.7138" stroke="#FF0000" stroke-width="2" stroke-linecap="round" stroke-linejoin="round"/>
</svg>