<svg xmlns="http://www.w3.org/2000/svg" width="40" height="40" viewBox="0 0 40 40" fill="none">
  <path fill-rule="evenodd" clip-rule="evenodd" d="M19.9992 2.33887C15.3151 2.33887 10.8229 4.19961 7.51078 7.51175C4.19863 10.8239 2.33789 15.3161 2.33789 20.0002C2.33789 24.6843 4.19863 29.1765 7.51078 32.4886C10.8229 35.8008 15.3151 37.6615 19.9992 37.6615C24.6833 37.6615 29.1755 35.8008 32.4877 32.4886C35.7998 29.1765 37.6606 24.6843 37.6606 20.0002C37.6606 15.3161 35.7998 10.8239 32.4877 7.51175C29.1755 4.19961 24.6833 2.33887 19.9992 2.33887ZM4.87122 20.0002C4.87122 15.988 6.46506 12.1401 9.30211 9.30309C12.1392 6.46604 15.987 4.8722 19.9992 4.8722C24.0114 4.8722 27.8593 6.46604 30.6963 9.30309C33.5334 12.1401 35.1272 15.988 35.1272 20.0002C35.1272 24.0124 33.5334 27.8603 30.6963 30.6973C27.8593 33.5344 24.0114 35.1282 19.9992 35.1282C15.987 35.1282 12.1392 33.5344 9.30211 30.6973C6.46506 27.8603 4.87122 24.0124 4.87122 20.0002ZM13.4312 24.5709C13.3327 24.4233 13.2058 24.297 13.0578 24.1991C12.9099 24.1013 12.7439 24.0339 12.5696 24.001C12.3953 23.9681 12.2161 23.9703 12.0427 24.0075C11.8693 24.0447 11.705 24.1162 11.5595 24.2177C11.414 24.3192 11.2902 24.4486 11.1954 24.5986C11.1006 24.7485 11.0367 24.9158 11.0074 25.0908C10.978 25.2657 10.9839 25.4447 11.0246 25.6174C11.0654 25.79 11.1401 25.9528 11.2446 26.0962C12.2267 27.508 13.5359 28.6611 15.0604 29.457C16.5849 30.2529 18.2794 30.668 19.9992 30.6669C23.6259 30.6669 26.8259 28.8562 28.7539 26.0962C28.9476 25.806 29.0199 25.4515 28.9552 25.1086C28.8905 24.7657 28.694 24.4619 28.4078 24.2623C28.1217 24.0627 27.7686 23.9832 27.4245 24.0409C27.0804 24.0985 26.7726 24.2888 26.5672 24.5709C25.8308 25.6304 24.8486 26.4957 23.7048 27.093C22.561 27.6902 21.2896 28.0015 19.9992 28.0002C18.7089 28.0015 17.4374 27.6902 16.2936 27.093C15.1498 26.4957 14.1677 25.6304 13.4312 24.5709ZM14.3326 18.2669C14.9514 18.2669 15.5449 18.021 15.9825 17.5834C16.4201 17.1459 16.6659 16.5524 16.6659 15.9335C16.6659 15.3147 16.4201 14.7212 15.9825 14.2836C15.5449 13.846 14.9514 13.6002 14.3326 13.6002C13.7137 13.6002 13.1202 13.846 12.6826 14.2836C12.2451 14.7212 11.9992 15.3147 11.9992 15.9335C11.9992 16.5524 12.2451 17.1459 12.6826 17.5834C13.1202 18.021 13.7137 18.2669 14.3326 18.2669ZM27.9992 15.9335C27.9992 16.5524 27.7534 17.1459 27.3158 17.5834C26.8782 18.021 26.2847 18.2669 25.6659 18.2669C25.0471 18.2669 24.4536 18.021 24.016 17.5834C23.5784 17.1459 23.3326 16.5524 23.3326 15.9335C23.3326 15.3147 23.5784 14.7212 24.016 14.2836C24.4536 13.846 25.0471 13.6002 25.6659 13.6002C26.2847 13.6002 26.8782 13.846 27.3158 14.2836C27.7534 14.7212 27.9992 15.3147 27.9992 15.9335Z" fill="#1FDE00"/>
</svg>